# xmcd
#
# Track frame offsets:
#	182
#	34750
#	73652
#	103380
#	136952
#	164625
#
# Disc length: 2740 seconds
#
# Revision: 1
# Processed by: cddbd v1.5PL3 Copyright (c) Steve Scherf et al.
# Submitted via: EasyCDDAExtractor 5.0.6
#
DISCID=570ab206
DTITLE=Robbie Basho - The Seal Of The Blue Lotus
DYEAR=1965
DGENRE=
TTITLE0=Seal Of The Blue Lotus
TTITLE1=Mountain Man's Farewell
TTITLE2=Dravidian Sunday
TTITLE3=Bardo Blues
TTITLE4=Sansara In Sweetness After Sandstorm
TTITLE5=Black Lotus - Hymn To Fugen
EXTD=
EXTT0=
EXTT1=
EXTT2=
EXTT3=
EXTT4=
EXTT5=
PLAYORDER=
